<?xml version="1.0" encoding="UTF-8" standalone="no"?>
<!-- Created with Inkscape (http://www.inkscape.org/) -->
<svg id="svg3468" xmlns:rdf="http://www.w3.org/1999/02/22-rdf-syntax-ns#" xmlns="http://www.w3.org/2000/svg" height="465" width="1753" version="1.1" xmlns:cc="http://creativecommons.org/ns#" xmlns:dc="http://purl.org/dc/elements/1.1/">
 <metadata id="metadata3473">
  <rdf:RDF>
   <cc:Work rdf:about="">
    <dc:format>image/svg+xml</dc:format>
    <dc:type rdf:resource="http://purl.org/dc/dcmitype/StillImage"/>
    <dc:title/>
   </cc:Work>
  </rdf:RDF>
 </metadata>
 <g id="layer1" transform="translate(1607.9072,711.56651)">
  <g id="g3196" fill="#FFF" transform="translate(77.16291,-694.28575)">
   <rect id="rect3336-2-4" fill-rule="evenodd" ry="5.4296" height="100" width="100" y="-12.281" x="-1560.1"/>
   <circle id="path3355-2" d="m -1575.0701,37.719238 c 0,30.375662 -24.6243,55 -55,55 -30.3756,0 -55,-24.624338 -55,-55 0,-30.375661 24.6244,-55 55,-55 30.3757,0 55,24.624339 55,55 z" cx="-1630.1" cy="37.719" r="55"/>
   <rect id="rect3336-3-0" fill-rule="evenodd" ry="5.4296" height="100" width="100" y="107.72" x="-1680.1"/>
   <rect id="rect3336-2-2-7" fill-rule="evenodd" ry="5.4296" height="100" width="100" y="107.72" x="-1560.1"/>
   <rect id="rect3336-3-6-08" fill-rule="evenodd" ry="5.4296" height="100" width="100" y="227.72" x="-1680.1"/>
   <rect id="rect3336-2-2-1-44" fill-rule="evenodd" ry="5.4296" height="100" width="100" y="227.72" x="-1560.1"/>
   <rect id="rect3336-3-6-0-5" fill-rule="evenodd" ry="5.4296" height="100" width="100" y="347.72" x="-1680.1"/>
   <rect id="rect3336-2-2-1-4-4" fill-rule="evenodd" ry="5.4296" height="100" width="100" y="347.72" x="-1560.1"/>
   <rect id="rect3336-2-28-0" fill-rule="evenodd" ry="5.4296" height="100" width="100" y="-12.281" x="-1440.1"/>
   <rect id="rect3336-2-2-1-8-0" fill-rule="evenodd" ry="5.4296" height="100" width="100" y="227.72" x="-1440.1"/>
   <g id="text4258-4" style="letter-spacing:0px;word-spacing:0px;" font-weight="normal" transform="scale(0.92452279,1.0816391)" font-size="129.88267517px" font-style="normal" font-family="sans-serif" line-height="125%">
    <path id="path3143" d="m-1394.4,208.53,24.416,0,0,94.685-24.416,0,0-94.685" style="text-align:start;"/>
    <path id="path3145" d="m-1346,208.53,27.27,0,34.437,64.942,0-64.942,23.148,0,0,94.685-27.27,0-34.437-64.942,0,64.942-23.148,0,0-94.685" style="text-align:start;"/>
    <path id="path3147" d="m-1171.2,211.51,0,20.041c-5.2005-2.3253-10.274-4.0799-15.221-5.2638-4.9468-1.1838-9.6187-1.7757-14.016-1.7758-5.8346,0.00008-10.147,0.80339-12.938,2.4099-2.7905,1.6067-4.1857,4.1012-4.1857,7.4835,0,2.5368,0.9302,4.524,2.7905,5.9614,1.9025,1.3953,5.3272,2.6003,10.274,3.6149l10.401,2.0928c10.528,2.114,18.011,5.3273,22.45,9.6398,4.4392,4.3126,6.6589,10.443,6.659,18.392-0.0001,10.443-3.1076,18.223-9.3227,23.338-6.1729,5.0736-15.622,7.6103-28.348,7.6103-6.0037,0-12.029-0.57077-18.074-1.7123-6.046-1.1416-12.092-2.8327-18.138-5.0736v-20.611c6.046,3.2133,11.881,5.6444,17.504,7.2932,5.6654,1.6066,11.12,2.41,16.362,2.4099,5.3272,0.00002,9.4072-0.88785,12.24-2.6636,2.8326-1.7757,4.249-4.3125,4.2491-7.6103-0.0001-2.9596-0.9725-5.2426-2.9173-6.8493-1.9027-1.6066-5.729-3.0441-11.479-4.3125l-9.4495-2.0928c-9.4706-2.0294-16.404-5.2638-20.802-9.7032-4.3548-4.4393-6.5322-10.422-6.5322-17.948,0-9.4283,3.0442-16.679,9.1324-21.753,6.0883-5.0735,14.84-7.6102,26.256-7.6103,5.2004,0.0001,10.549,0.40175,16.045,1.205,5.4962,0.76113,11.183,1.9238,17.06,3.4881" style="text-align:start;"/>
    <path id="path3149" d="m-1154.8,208.53,87.265,0,0,18.455-31.393,0,0,76.23-24.416,0,0-76.23-31.456,0,0-18.455" style="text-align:start;"/>
    <path id="path3151" d="m-1055,208.53,24.416,0,0,94.685-24.416,0,0-94.685" style="text-align:start;"/>
    <path id="path3153" d="m-1017.8,208.53,87.265,0,0,18.455-31.393,0,0,76.23-24.417,0,0-76.23-31.456,0,0-18.455" style="text-align:start;"/>
    <path id="path3155" d="m-918.01,208.53,24.417,0,0,56.76c-0.00003,7.8218,1.2684,13.424,3.8052,16.806,2.579,3.3401,6.7647,5.0102,12.557,5.0101,5.8345,0.00002,10.02-1.67,12.557-5.0101,2.579-3.3824,3.8685-8.9844,3.8686-16.806v-56.76h24.417v56.76c-0.0001,13.403-3.3613,23.381-10.084,29.934-6.7226,6.5534-16.975,9.83-30.758,9.83-13.741,0-23.973-3.2767-30.695-9.83-6.7225-6.5533-10.084-16.531-10.084-29.934v-56.76" style="text-align:start;"/>
    <path id="path3157" d="m-823.77,208.53,87.265,0,0,18.455-31.393,0,0,76.23-24.417,0,0-76.23-31.456,0,0-18.455" style="text-align:start;"/>
    <path id="path3159" d="m-680.69,224.51c-7.4413,0.00008-13.212,2.7483-17.314,8.2445-4.1012,5.4964-6.1517,13.234-6.1517,23.212-0.00003,9.9358,2.0505,17.652,6.1517,23.148,4.1011,5.4964,9.8723,8.2446,17.314,8.2445,7.4834,0.00002,13.276-2.7482,17.377-8.2445s6.1516-13.212,6.1517-23.148c-0.00008-9.978-2.0506-17.715-6.1517-23.212-4.1012-5.4963-9.8935-8.2445-17.377-8.2445m0-17.694c15.221,0.0001,27.143,4.3549,35.769,13.064,8.625,8.7097,12.937,20.738,12.938,36.086-0.00011,15.305-4.3126,27.313-12.938,36.022-8.6251,8.7096-20.548,13.064-35.769,13.064-15.178,0-27.101-4.3548-35.769-13.064-8.6251-8.7096-12.938-20.717-12.938-36.022-0.00001-15.347,4.3125-27.376,12.938-36.086,8.6673-8.7095,20.59-13.064,35.769-13.064" style="text-align:start;"/>
    <path id="path3161" d="m-568.44,208.53,65.893,0,0,18.455-41.476,0,0,17.631,39.003,0,0,18.455-39.003,0,0,40.145-24.417,0,0-94.685" style="text-align:start;"/>
    <path id="path3163" d="m-479.65,208.53,65.893,0,0,18.455-41.476,0,0,17.631,39.003,0,0,18.455-39.003,0,0,21.689,42.872,0,0,18.455-67.288,0,0-94.685" style="text-align:start;"/>
    <path id="path3165" d="m-366.45,226.98,0,57.775,8.7519,0c9.978,0.00002,17.588-2.4733,22.831-7.4201,5.2849-4.9467,7.9274-12.134,7.9274-21.563-0.00008-9.386-2.6214-16.531-7.864-21.436-5.2427-4.9044-12.874-7.3566-22.894-7.3567h-8.7519m-24.417-18.455,25.748,0c14.375,0.00009,25.072,1.0359,32.09,3.1076,7.0606,2.0295,13.107,5.4964,18.138,10.401,4.4393,4.2703,7.7371,9.1959,9.8934,14.777,2.1562,5.581,3.2343,11.902,3.2344,18.962-0.0001,7.1453-1.0782,13.53-3.2344,19.153-2.1564,5.5809-5.4542,10.507-9.8934,14.777-5.0736,4.9044-11.162,8.3925-18.265,10.464-7.103,2.0294-17.758,3.0441-31.963,3.0441h-25.748v-94.685" style="text-align:start;"/>
    <path id="path3167" d="m-283.05,208.53,65.893,0,0,18.455-41.476,0,0,17.631,39.003,0,0,18.455-39.003,0,0,21.689,42.872,0,0,18.455-67.288,0,0-94.685" style="text-align:start;"/>
    <path id="path3169" d="m-159.57,250.51c5.1158,0.00005,8.773-0.95124,10.972-2.8539,2.2408-1.9025,3.3612-5.0312,3.3612-9.3861-0.00006-4.3124-1.1205-7.3989-3.3612-9.2592-2.1986-1.8602-5.8558-2.7904-10.972-2.7905h-10.274v24.29h10.274m-10.274,16.87,0,35.832-24.417,0,0-94.685,37.291,0c12.472,0.00009,21.605,2.0929,27.397,6.2785,5.8345,4.1858,8.7518,10.803,8.7519,19.85-0.00009,6.2575-1.5222,11.394-4.5662,15.411-3.0019,4.0166-7.547,6.9762-13.635,8.8787,3.34,0.76108,6.3207,2.4946,8.9422,5.2004,2.6635,2.6637,5.3483,6.7225,8.0543,12.177l13.255,26.89h-26.002l-11.542-23.529c-2.3254-4.7353-4.6931-7.9697-7.103-9.7032-2.3677-1.7334-5.5387-2.6002-9.5129-2.6002h-6.9127" style="text-align:start;"/>
    <path id="path3171" d="m-36.857,285.96-38.179,0-6.0249,17.25-24.543,0,35.071-94.685,29.11,0,35.071,94.685-24.543,0-5.9614-17.25m-32.09-17.567,25.939,0-12.938-37.671-13.001,37.671" style="text-align:start;"/>
    <path id="path3173" d="m6.1413,208.53,24.417,0,0,76.23,42.872,0,0,18.455-67.288,0,0-94.685" style="text-align:start;"/>
   </g>
   <g id="text4293-7" style="letter-spacing:0px;word-spacing:0px;" font-family="sans-serif" font-size="99.97703552px" line-height="125%" font-style="normal" font-weight="normal">
    <path id="path3176" d="m-1279.5,381.16,0,27.386,12.4,0c4.5887,0.00003,8.1361-1.1878,10.642-3.5636,2.5059-2.3757,3.7588-5.7604,3.7589-10.154-0.0001-4.3609-1.253-7.7293-3.7589-10.105-2.506-2.3757-6.0534-3.5636-10.642-3.5636h-12.4m-9.861-8.1036,22.26,0c8.1686,0.00007,14.336,1.8551,18.502,5.5651,4.1982,3.6776,6.2973,9.08,6.2974,16.207-0.0001,7.1924-2.0992,12.627-6.2974,16.305-4.1658,3.6776-10.333,5.5163-18.502,5.5163h-12.4v29.29h-9.861v-72.884"/>
    <path id="path3178" d="m-1186.2,416.35,0,4.3935-41.299,0c0.3905,6.1835,2.2456,10.902,5.5651,14.157,3.3521,3.2219,8.006,4.8329,13.962,4.8329,3.4497,0.00001,6.7855-0.42307,10.007-1.2692,3.2545-0.84615,6.4764-2.1154,9.6658-3.8077v8.4942c-3.222,1.3669-6.5253,2.4083-9.9098,3.1243-3.3847,0.71598-6.8182,1.074-10.3,1.074-8.722,0-15.638-2.5385-20.747-7.6154-5.077-5.0769-7.6154-11.944-7.6154-20.601,0-8.9497,2.4083-16.044,7.2249-21.284,4.8491-5.2722,11.374-7.9083,19.576-7.9083,7.3551,0.00006,13.164,2.3758,17.428,7.1273,4.2958,4.719,6.4438,11.147,6.4438,19.283m-8.9823-2.6361c-0.065-4.9142-1.4483-8.8358-4.1494-11.765-2.6687-2.929-6.2161-4.3935-10.642-4.3935-5.0119,0.00005-9.0312,1.4157-12.058,4.2471-2.9941,2.8314-4.719,6.8181-5.1746,11.96l32.024-0.0488"/>
    <path id="path3180" d="m-1139.8,399.66c-1.0089-0.58576-2.1154-1.0088-3.3196-1.2692-1.1716-0.29285-2.4734-0.43931-3.9053-0.43935-5.077,0.00004-8.9823,1.6598-11.716,4.9793-2.7012,3.287-4.0518,8.0223-4.0518,14.206v28.802h-9.0311v-54.675h9.0311v8.4941c1.8876-3.3195,4.3447-5.7766,7.3714-7.3714,3.0266-1.6272,6.7041-2.4408,11.033-2.4408,0.6183,0.00006,1.3018,0.0489,2.0503,0.14645,0.7485,0.0651,1.5784,0.17905,2.4897,0.34172l0.049,9.2264"/>
    <path id="path3182" d="m-1086.6,412.94,0,33-8.9823,0,0-32.707c0-5.1746-1.0089-9.0474-3.0266-11.618-2.0178-2.571-5.0445-3.8565-9.08-3.8565-4.8491,0.00005-8.6731,1.5459-11.472,4.6376-2.7989,3.0918-4.1983,7.3063-4.1983,12.644v30.901h-9.0311v-54.675h9.0311v8.4941c2.1479-3.287,4.6701-5.7441,7.5666-7.3714,2.929-1.6272,6.2974-2.4408,10.105-2.4408,6.2811,0.00006,11.033,1.9527,14.255,5.858,3.2218,3.8729,4.8328,9.5844,4.8328,17.135"/>
    <path id="path3184" d="m-1043.7,418.45c-7.2575,0.00003-12.286,0.82991-15.084,2.4897-2.7989,1.6598-4.1983,4.4912-4.1983,8.4941,0,3.1894,1.0414,5.7279,3.1243,7.6154,2.1154,1.855,4.9793,2.7826,8.5918,2.7826,4.9793,0,8.966-1.7574,11.96-5.2722,3.0266-3.5474,4.5399-8.25,4.54-14.108v-2.0015h-8.9335m17.916-3.7101,0,31.194-8.9823,0,0-8.2989c-2.0504,3.3196-4.6051,5.7767-7.6643,7.3714-3.0592,1.5621-6.8018,2.3432-11.228,2.3432-5.5977,0-10.056-1.5621-13.376-4.6864-3.287-3.1568-4.9305-7.3714-4.9305-12.644,0-6.1509,2.0503-10.789,6.1509-13.913,4.1332-3.1242,10.284-4.6864,18.453-4.6864h12.595v-0.8787c-0.0001-4.1331-1.3669-7.3225-4.1006-9.5681-2.7013-2.2781-6.509-3.4171-11.423-3.4172-3.1243,0.00005-6.1672,0.37431-9.1288,1.1228-2.9615,0.74857-5.8092,1.8714-8.5429,3.3684v-8.2989c3.287-1.2692,6.4763-2.213,9.5681-2.8314,3.0917-0.65084,6.1021-0.97628,9.0311-0.97634,7.9083,0.00006,13.815,2.0504,17.721,6.1509,3.9053,4.1007,5.8579,10.317,5.858,18.648"/>
    <path id="path3186" d="m-964.67,401.76c2.2455-4.0355,4.9304-7.0133,8.0548-8.9335,3.1242-1.9201,6.8018-2.8801,11.033-2.8802,5.6952,0.00006,10.089,2.0016,13.181,6.0045,3.0916,3.9705,4.6375,9.6332,4.6376,16.988v33h-9.0311v-32.707c-0.00008-5.2396-0.9276-9.1287-2.7826-11.667-1.8551-2.5384-4.6865-3.8077-8.4941-3.8077-4.654,0.00005-8.3315,1.5459-11.033,4.6376-2.7012,3.0918-4.0518,7.3063-4.0518,12.644v30.901h-9.0311v-32.707c-0.00004-5.2722-0.92756-9.1613-2.7826-11.667-1.8551-2.5384-4.719-3.8077-8.5918-3.8077-4.5888,0.00005-8.2338,1.5622-10.935,4.6864-2.7012,3.0918-4.0518,7.29-4.0518,12.595v30.901h-9.0311v-54.675h9.0311v8.4941c2.0503-3.352,4.5074-5.8254,7.3714-7.4202,2.8639-1.5946,6.2648-2.392,10.203-2.392,3.9704,0.00006,7.3388,1.0089,10.105,3.0266,2.7988,2.0178,4.8654,4.9468,6.1998,8.787"/>
    <path id="path3188" d="m-870.55,418.65c-0.00004-6.6065-1.3669-11.781-4.1006-15.524-2.7012-3.7751-6.4276-5.6627-11.179-5.6628-4.7515,0.00005-8.4942,1.8876-11.228,5.6628-2.7012,3.7427-4.0518,8.9173-4.0518,15.524-0.00002,6.6066,1.3506,11.797,4.0518,15.573,2.7337,3.7426,6.4764,5.614,11.228,5.614,4.7515,0,8.4778-1.8713,11.179-5.614,2.7337-3.7752,4.1006-8.966,4.1006-15.573m-30.559-19.087c1.8876-3.2544,4.2633-5.6627,7.1273-7.2249,2.8964-1.5946,6.3462-2.392,10.349-2.392,6.6391,0.00006,12.025,2.6362,16.158,7.9083,4.1656,5.2723,6.2485,12.204,6.2486,20.796-0.00005,8.5918-2.0829,15.524-6.2486,20.796-4.1332,5.2722-9.5193,7.9083-16.158,7.9083-4.003,0-7.4527-0.78107-10.349-2.3432-2.864-1.5947-5.2397-4.0192-7.1273-7.2737v8.2012h-9.0311v-75.959h9.0311v29.583"/>
    <path id="path3190" d="m-847.27,424.36,0-33.098,8.9823,0,0,32.756c-0.00002,5.1746,1.0089,9.0637,3.0266,11.667,2.0177,2.571,5.0444,3.8565,9.08,3.8565,4.8491,0,8.6731-1.5459,11.472-4.6376,2.8313-3.0917,4.247-7.3062,4.2471-12.644v-30.999h8.9823v54.675h-8.9823v-8.3965c-2.1805,3.3196-4.719,5.7929-7.6154,7.4202-2.864,1.5947-6.1998,2.392-10.007,2.392-6.2811,0-11.049-1.9527-14.303-5.858-3.2545-3.9053-4.8817-9.6169-4.8817-17.135m22.602-34.416"/>
    <path id="path3192" d="m-743.53,393.36,0,8.3965c-2.5385-1.3994-5.0933-2.4408-7.6643-3.1243-2.5385-0.71593-5.1095-1.0739-7.7131-1.074-5.8255,0.00005-10.349,1.8551-13.571,5.5651-3.2219,3.6776-4.8329,8.8522-4.8329,15.524-0.00001,6.6717,1.611,11.863,4.8329,15.573,3.2219,3.6776,7.7456,5.5163,13.571,5.5163,2.6035,0.00001,5.1746-0.34171,7.7131-1.0252,2.571-0.71598,5.1257-1.7737,7.6643-3.1731v8.2989c-2.506,1.1716-5.1096,2.0503-7.8107,2.6361-2.6687,0.5858-5.5163,0.8787-8.543,0.8787-8.2338,0-14.775-2.5873-19.624-7.7619-4.8492-5.1746-7.2737-12.155-7.2737-20.942,0-8.9172,2.4408-15.931,7.3225-21.04,4.9142-5.1094,11.635-7.6642,20.161-7.6643,2.7662,0.00006,5.4674,0.29296,8.1036,0.87871,2.6361,0.55331,5.1908,1.3995,7.6643,2.5385"/>
    <path id="path3194" d="m-706.63,397.56c-4.8166,0.00005-8.6244,1.8876-11.423,5.6628-2.7988,3.7427-4.1983,8.8847-4.1982,15.426-0.00002,6.5415,1.3831,11.7,4.1494,15.475,2.7988,3.7426,6.6228,5.614,11.472,5.6139,4.784,0.00001,8.5755-1.8876,11.374-5.6628,2.7988-3.7752,4.1982-8.9172,4.1982-15.426-0.00004-6.4764-1.3995-11.602-4.1982-15.377-2.7989-3.8077-6.5903-5.7115-11.374-5.7116m0-7.6154c7.8107,0.00006,13.945,2.5385,18.404,7.6154,4.4586,5.077,6.6879,12.107,6.6879,21.089-0.00006,8.9498-2.2294,15.979-6.6879,21.089-4.4586,5.077-10.593,7.6154-18.404,7.6154-7.8433,0-13.994-2.5385-18.453-7.6154-4.4261-5.1095-6.6391-12.139-6.6391-21.089,0-8.9823,2.213-16.012,6.6391-21.089,4.4586-5.0769,10.61-7.6154,18.453-7.6154"/>
   </g>
  </g>
 </g>
</svg>
